<?xml version="1.0" encoding="iso-8859-1"?>
<!-- Uploaded to: SVG Repo, www.svgrepo.com, Generator: SVG Repo Mixer Tools -->
<svg version="1.1" id="Layer_1" xmlns="http://www.w3.org/2000/svg" xmlns:xlink="http://www.w3.org/1999/xlink" 
	 viewBox="0 0 512 512" xml:space="preserve">
<path style="fill:#66CC92;" d="M44.993,413.409H21.768v-256.19c0-22.833,18.508-41.341,41.341-41.341h298.506
	c55.558,0,100.607,45.049,100.607,100.607v196.924h-36.68"/>
<path style="fill:#8FE5B2;" d="M361.615,115.878H343.69c55.558,0,100.607,45.049,100.607,100.607v196.924h17.926V216.485
	C462.223,160.927,417.174,115.878,361.615,115.878z"/>
<path style="fill:#51AD77;" d="M97.84,115.878H63.109c-22.833,0-41.341,18.508-41.341,41.341v256.19h23.225h11.506v-256.19
	C56.499,134.386,75.007,115.878,97.84,115.878z"/>
<path style="fill:#F2D546;" d="M462.223,332.744v80.665H21.768V265.523h373.233C432.13,265.523,462.223,295.616,462.223,332.744z"/>
<path style="fill:#89E8E8;" d="M462.223,216.485v22.149H107.374c-11.248,0-21.421-4.56-28.793-11.921
	c-7.361-7.372-11.921-17.545-11.921-28.793c0-22.485,18.228-40.702,40.714-40.702h335.545
	C455.064,173.845,462.223,194.336,462.223,216.485z"/>
<path style="fill:#F9E480;" d="M462.223,332.744v80.665h-17.926c2.202-96.972-49.295-147.886-49.295-147.886
	C453.182,272.245,462.223,315.087,462.223,332.744z"/>
<path style="fill:#FFFFFF;" d="M442.919,157.219h-19.046c12.145,16.626,19.304,37.117,19.304,59.267v22.149h19.046v-22.149
	C462.223,194.336,455.064,173.845,442.919,157.219z"/>
<g>
	<circle style="fill:#495E77;" cx="361.671" cy="413.409" r="63.86"/>
	<path style="fill:#495E77;" d="M59.351,373.077c-8.971,10.997-14.356,25.034-14.356,40.333c0,35.269,28.591,63.86,63.86,63.86
		s63.86-28.591,63.86-63.86c0-15.298-5.386-29.335-14.356-40.333H59.351z"/>
</g>
<polygon style="fill:#D6BA30;" points="54.337,266.643 54.337,385.889 44.993,413.409 21.768,413.409 21.768,266.643 "/>
<path style="fill:#EF8D43;" d="M98.031,81.786L80.105,34.731c0,0,52.656,2.241,97.47,47.055"/>
<g>
	<polygon style="fill:#FFFFFF;" points="280.648,157.214 261.602,157.214 242.556,238.635 261.602,238.635 	"/>
	<polygon style="fill:#FFFFFF;" points="340.026,157.214 326.582,157.214 307.536,238.635 320.98,238.635 	"/>
	<polygon style="fill:#FFFFFF;" points="208.945,157.214 167.492,157.214 148.446,238.635 189.899,238.635 	"/>
	<polygon style="fill:#FFFFFF;" points="394.923,157.214 353.47,157.214 334.424,238.635 375.877,238.635 	"/>
	<circle style="fill:#FFFFFF;" cx="361.671" cy="413.409" r="27.645"/>
	<circle style="fill:#FFFFFF;" cx="108.853" cy="413.409" r="27.645"/>
	<ellipse style="fill:#FFFFFF;" cx="446.504" cy="338.032" rx="15.73" ry="21.597"/>
</g>
<rect x="462.223" y="267.764" style="fill:#495E77;" width="41.375" height="104.193"/>
<rect x="462.223" y="338.346" style="fill:#384C60;" width="41.375" height="33.611"/>
<path d="M27.449,90.188h394.363c4.64,0,8.403-3.762,8.403-8.403s-3.762-8.403-8.403-8.403H181.003
	c-46.005-44.228-98.297-46.952-100.54-47.047c-2.83-0.122-5.52,1.188-7.172,3.481c-1.654,2.293-2.042,5.263-1.036,7.905
	l13.584,35.661H27.449c-4.64,0-8.403,3.762-8.403,8.403S22.808,90.188,27.449,90.188z M93.033,45.062
	c14.304,2.944,38.234,10.271,62.128,28.321h-51.339L93.033,45.062z"/>
<path d="M361.677,449.456c19.876,0,36.047-16.171,36.047-36.047s-16.171-36.047-36.047-36.047s-36.047,16.171-36.047,36.047
	S341.801,449.456,361.677,449.456z M361.677,394.167c10.61,0,19.242,8.632,19.242,19.242s-8.632,19.242-19.242,19.242
	c-10.61,0-19.242-8.632-19.242-19.242S351.067,394.167,361.677,394.167z"/>
<path d="M503.597,259.361h-32.972v-42.876c0-60.108-48.902-109.01-109.01-109.01H140.604c-4.64,0-8.403,3.762-8.403,8.403
	s3.762,8.403,8.403,8.403h221.011c24.118,0,46.092,9.319,62.541,24.531h-33.59c-0.016,0-0.032,0-0.048,0H107.371
	c-27.081,0-49.113,22.033-49.113,49.113s22.032,49.113,49.113,49.113h298.71c0.012,0,0.025,0.001,0.037,0.001
	c0.011,0,0.024-0.001,0.035-0.001h47.669v38.196c-1.079-1.334-2.189-2.647-3.363-3.914c-14.272-15.379-34.484-24.198-55.456-24.198
	H127.16c-4.64,0-8.403,3.762-8.403,8.403c0,4.641,3.762,8.403,8.403,8.403h267.842c16.312,0,32.034,6.861,43.133,18.821
	c4.271,4.606,7.72,9.804,10.294,15.388c-0.636-0.06-1.278-0.1-1.93-0.1c-13.529,0-24.127,13.178-24.127,30
	c0,16.822,10.597,30,24.127,30c2.563,0,5.021-0.475,7.321-1.357v38.329h-20.385c-4.179-35.899-34.757-63.86-71.758-63.86
	s-67.58,27.961-71.758,63.86H180.609c-1.602-13.594-7.043-26.579-15.741-37.242c-1.595-1.956-3.986-3.091-6.511-3.091H59.351
	c-2.524,0-4.915,1.135-6.511,3.091c-8.698,10.664-14.139,23.648-15.741,37.242h-6.927V273.926h68.98c4.64,0,8.403-3.762,8.403-8.403
	c0-4.64-3.762-8.403-8.403-8.403h-68.98v-99.902c0-18.162,14.776-32.938,32.938-32.938h49.486c4.64,0,8.403-3.762,8.403-8.403
	s-3.762-8.403-8.403-8.403H63.109c-27.428,0-49.744,22.315-49.744,49.744v247.788H8.403c-4.64,0-8.403,3.762-8.403,8.403
	s3.762,8.403,8.403,8.403h28.693c4.179,35.899,34.757,63.86,71.758,63.86s67.58-27.961,71.758-63.86h109.288
	c0.909,7.903,3.102,15.534,6.568,22.772c2.004,4.186,7.021,5.955,11.208,3.949c4.186-2.004,5.954-7.022,3.949-11.207
	c-3.577-7.47-5.394-15.494-5.405-23.847c0-0.023,0.003-0.047,0.003-0.071c0-0.025-0.003-0.048-0.003-0.072
	c0.039-30.546,24.901-55.386,55.455-55.386c30.579,0,55.457,24.878,55.457,55.457s-24.878,55.457-55.457,55.457
	c-12.491,0-24.281-4.052-34.099-11.718c-3.658-2.857-8.938-2.206-11.794,1.451c-2.856,3.658-2.207,8.938,1.451,11.794
	c12.8,9.996,28.168,15.278,44.442,15.278c37.002,0,67.58-27.961,71.758-63.86h47.756c4.641,0,8.403-3.762,8.403-8.403
	c0-4.64-3.762-8.403-8.403-8.403h-10.565v-24.648h32.972c4.64,0,8.403-3.762,8.403-8.403V267.764
	C512,263.123,508.238,259.361,503.597,259.361z M128.096,413.409c0,10.61-8.632,19.242-19.242,19.242s-19.242-8.632-19.242-19.242
	s8.632-19.242,19.242-19.242S128.096,402.799,128.096,413.409z M108.854,468.867c-30.579,0-55.457-24.878-55.457-55.457
	c0-11.432,3.571-22.629,10.12-31.93h28.637c-11.488,6.033-19.347,18.078-19.347,31.93c0,19.876,16.171,36.047,36.047,36.047
	s36.047-16.171,36.047-36.047c0-13.852-7.858-25.897-19.347-31.93h28.637c6.547,9.297,10.117,20.487,10.119,31.914
	c0,0.006-0.001,0.01-0.001,0.016c0,0.004,0.001,0.01,0.001,0.015C164.304,443.996,139.429,468.867,108.854,468.867z
	 M308.096,165.617h75.407l12.447,64.615h-87.854V165.617z M291.291,230.232h-60.872v-64.615h60.872V230.232z M75.063,197.924
	c0-17.815,14.493-32.308,32.308-32.308h28.566v10.278c0,4.64,3.762,8.403,8.403,8.403s8.403-3.762,8.403-8.403v-10.278h60.872
	v64.615h-60.872v-26.328c0-4.64-3.762-8.403-8.403-8.403s-8.403,3.762-8.403,8.403v26.328h-28.566
	C89.556,230.232,75.063,215.739,75.063,197.924z M413.065,230.232l-12.447-64.615h37.85c9.69,14.591,15.352,32.078,15.352,50.868
	v13.747L413.065,230.232L413.065,230.232z M446.499,351.23c-3.386,0-7.322-5.764-7.322-13.194s3.936-13.194,7.322-13.194
	c3.386,0,7.321,5.764,7.321,13.194S449.884,351.23,446.499,351.23z M495.195,363.554h-24.569v-87.387h24.569V363.554z"/>
</svg>